<svg width="43" height="43" viewBox="0 0 43 43" fill="none" xmlns="http://www.w3.org/2000/svg">
  <path d="M30.5979 2.18084C30.5976 2.18297 30.5991 2.18495 30.6013 2.1852C30.709 2.19741 30.817 2.2121 30.9252 2.22941C34.6805 2.83061 37.2289 6.31002 36.6172 10.0009C36.3156 11.8206 35.3021 13.3518 33.902 14.3648C33.8722 14.3864 33.8836 14.4332 33.9201 14.439C38.9937 15.2513 42.4367 19.9521 41.6103 24.9386C40.7839 29.9252 36.001 33.3091 30.9274 32.4969C30.7813 32.4735 30.6365 32.4467 30.4932 32.4169C30.4902 32.4163 30.4874 32.4183 30.4869 32.4212C30.4864 32.424 30.4837 32.4259 30.4809 32.4254L13.5901 29.7213C12.7743 29.5907 12.2208 28.8349 12.3536 28.0332L16.7589 1.45169C16.8918 0.649945 17.6608 0.105867 18.4765 0.23646L30.5947 2.17651C30.5968 2.17684 30.5983 2.17878 30.5979 2.18084Z" fill="#B3F5BA"/>
  <path d="M16.1764 4.20367C16.177 4.20621 16.1797 4.20774 16.1822 4.20702C16.308 4.17185 16.4352 4.13927 16.5639 4.1096C21.0306 3.07946 25.5013 5.80329 26.5494 10.1934C27.0661 12.3578 26.6542 14.5231 25.5687 16.2858C25.5455 16.3234 25.5802 16.3703 25.6237 16.3603C31.6584 14.9685 37.6984 18.6485 39.1145 24.5797C40.5305 30.5109 36.7863 36.4474 30.7517 37.8392C30.5778 37.8793 30.4039 37.915 30.2302 37.9467C30.2266 37.9473 30.2243 37.9508 30.2252 37.9542C30.226 37.9576 30.2238 37.9609 30.2204 37.9617L9.82986 42.6644C9.02523 42.8499 8.21989 42.3593 8.03109 41.5684L0.341866 9.36162C0.153059 8.57078 0.652281 7.77925 1.45691 7.59368L16.1708 4.20025C16.1733 4.19968 16.1758 4.2012 16.1764 4.20367Z" fill="#67EA76"/>
  <path d="M17.6855 24.1143C17.6855 23.4644 18.2216 22.9375 18.8829 22.9375C19.5441 22.9375 20.0802 23.4644 20.0802 24.1143V27.736C20.0802 28.3859 19.5441 28.9128 18.8829 28.9128C18.2216 28.9128 17.6855 28.3859 17.6855 27.736V24.1143Z" fill="#3C3C3C"/>
  <path d="M23.0372 24.1143C23.0372 23.4644 23.5732 22.9375 24.2345 22.9375C24.8958 22.9375 25.4318 23.4644 25.4318 24.1143V27.736C25.4318 28.3859 24.8958 28.9128 24.2345 28.9128C23.5732 28.9128 23.0372 28.3859 23.0372 27.736V24.1143Z" fill="#3C3C3C"/>
  <path d="M14.8347 29.5313C15.2373 29.5251 15.5736 29.8175 15.6256 30.2004C15.6262 30.2023 15.6268 30.2045 15.6276 30.207C15.6379 30.2404 15.6572 30.2944 15.6867 30.3659C15.7456 30.5085 15.8356 30.6951 15.9529 30.8894C16.2366 31.3596 16.561 31.6938 17.0919 32.234C17.2927 32.4384 17.5108 32.5337 17.9622 32.7501C18.4931 33.0046 18.8821 33.0445 19.1998 33.0863C19.5356 33.1203 20.1778 33.1541 20.6732 33.1729H20.6733C20.7556 33.1758 20.9375 33.1769 21.1886 33.1954C21.6213 33.2273 21.9458 33.598 21.9133 34.0232C21.8809 34.4485 21.5038 34.7674 21.0711 34.7355C20.8598 34.7199 20.7503 34.721 20.6161 34.7162H20.6153L20.6145 34.7161C20.1138 34.6972 19.4175 34.6616 19.0273 34.6215L19.0156 34.6203L19.0039 34.6188C18.6813 34.5759 18.0618 34.5162 17.2732 34.1381C16.9145 33.9661 16.3979 33.7509 15.9616 33.3069C15.4479 32.7841 14.9931 32.3266 14.6013 31.6772C14.4415 31.4123 14.3173 31.1562 14.231 30.9473C14.1879 30.8432 14.1516 30.7444 14.1245 30.6569C14.1069 30.6002 14.064 30.4607 14.0616 30.3157C14.0547 29.8894 14.4009 29.5382 14.8347 29.5313ZM15.6328 30.2912C15.6326 30.28 15.632 30.2697 15.6314 30.2604C15.632 30.2706 15.6326 30.2809 15.6328 30.2912Z" fill="#3C3C3C"/>
  <path d="M23.4629 16.334C23.228 15.5552 23.68 14.7367 24.4724 14.5058L35.064 11.4197C35.8564 11.1888 36.6892 11.633 36.9241 12.4118L37.3028 13.6674C37.5377 14.4462 37.0858 15.2647 36.2934 15.4956L25.7018 18.5817C24.9094 18.8126 24.0766 18.3684 23.8417 17.5896L23.4629 16.334Z" fill="#FF6442"/>
  <ellipse cx="1.22474" cy="1.20711" rx="1.22474" ry="1.20711" transform="matrix(0.960076 -0.27974 0.288778 0.957396 24.5908 15.4316)" fill="#DBFFF8"/>
</svg>
